<svg width="447" height="512" viewBox="0 0 447 512" fill="none" xmlns="http://www.w3.org/2000/svg">
<path fill-rule="evenodd" clip-rule="evenodd" d="M2.182 2.323V2.323C0.780441 3.81513 0.00122324 5.78593 0.00342001 7.83307L0.257999 245.073L0.508877 478.864C0.513563 483.23 1.51649 487.538 3.441 491.457V491.457C7.053 498.814 13.288 505.005 20.799 508.693V508.693C24.5606 510.54 28.6944 511.503 32.8849 511.51L224.516 511.798C369.172 512.015 423.594 511.791 426.516 510.968C432.337 509.328 437.647 505.545 440.523 500.989C446.267 491.89 446.016 500.19 446.016 319.244V152.909L443.561 150.455C441.153 148.046 440.795 148 424.561 148H408.016V76.635C408.016 5.951 407.996 5.245 405.943 2.635V2.635C404.635 0.971298 402.635 0 400.519 0H204.118H7.55275C5.51864 0 3.57497 0.84069 2.182 2.323V2.323ZM394.016 256.011V498.021L211.193 497.761L33.3693 497.507C30.1083 497.502 26.9204 496.541 24.201 494.741V494.741C21.909 493.224 18.792 490.107 17.275 487.815V487.815C15.4754 485.096 14.5141 481.908 14.5105 478.647L14.26 248.823L14.004 14H204.01H394.016V256.011ZM312.199 41.902C302.182 45.361 296.286 54.05 297.237 63.952C298.081 72.737 303.285 78.014 317.016 84.011C329.295 89.374 333.016 93.325 333.016 101.001C333.016 104.746 329.157 110.158 324.996 112.248C320.38 114.567 311.939 114.446 305.016 111.96C301.991 110.874 299.106 109.876 298.605 109.743C298.103 109.609 297.129 111.379 296.44 113.675L295.186 117.851L299.044 119.394C311.418 124.345 327.046 123.028 335.88 116.29C345.031 109.31 345.728 91.378 337.151 83.621C336.008 82.587 329.547 78.987 322.794 75.621C311.874 70.177 310.305 69.067 308.604 65.584C306.868 62.027 306.822 61.295 308.104 57.616C310.186 51.643 314.661 49 322.696 49C326.207 49 330.696 49.675 332.67 50.5C337.564 52.545 337.696 52.5 339.071 48.333C340.546 43.864 339.361 42.669 331.857 41.059C324.72 39.529 318.269 39.805 312.199 41.902ZM61.255 81.25L61.516 121.5H66.016H70.516V88.25C70.516 69.962 70.592 55 70.684 55C70.777 55 72.832 58.712 75.25 63.25C79.291 70.83 90.923 90.046 105.062 112.5L110.73 121.5L115.873 121.802L121.016 122.105V81.497V40.89L116.266 41.195L111.516 41.5L111.256 56.5C111.113 64.75 111.338 79.488 111.756 89.251C112.174 99.013 112.44 107.001 112.348 107.001C112.255 107 110.204 103.287 107.79 98.75C103.763 91.181 90.556 69.683 77.381 49.25L72.061 41H66.527H60.993L61.255 81.25ZM139.48 42.232C139.212 42.932 139.11 61.054 139.254 82.502L139.516 121.5L161.766 121.769L184.016 122.038V117.519V113H167.016H150.016V98.5V84H165.573H181.131L180.823 79.75L180.516 75.5L165.266 75.224L150.016 74.948V62.474V50H166.573H183.131L182.823 45.75L182.516 41.5L161.242 41.23C144.747 41.021 139.859 41.246 139.48 42.232ZM192.025 42.198C192.03 42.914 196.444 60.825 201.834 82L211.635 120.5L217.325 120.8C220.455 120.965 223.016 120.871 223.016 120.591C223.016 120.311 226.362 107.801 230.452 92.791C234.542 77.781 238.199 63.7 238.58 61.5C239.704 55.008 240.661 54.364 241.338 59.643C241.681 62.314 244.977 77.213 248.663 92.75L255.365 121L260.94 120.997L266.516 120.993L277.401 82.247C283.388 60.936 288.338 43.05 288.401 42.5C288.464 41.95 286.301 41.5 283.594 41.5H278.672L274.395 57.5C272.043 66.3 268.254 81.375 265.975 91C263.695 100.625 261.711 108.624 261.565 108.775C261.419 108.926 260.526 105.101 259.581 100.275C257.971 92.056 249.16 54.046 246.942 45.75L245.939 42H240.477C237.474 42 235.016 42.172 235.016 42.383C235.016 42.594 231.666 55.437 227.571 70.925C223.476 86.412 219.825 101.09 219.457 103.542C219.09 105.994 218.488 108 218.12 108C217.752 108 216.192 102.037 214.652 94.75C213.113 87.462 209.749 72.5 207.177 61.5L202.5 41.5L197.258 41.198C193.461 40.979 192.018 41.254 192.025 42.198ZM50.016 148.709C44.941 150.576 43.398 156.382 47.016 160C48.998 161.982 50.349 162 198.293 162C363.569 162 352.033 162.473 352.001 155.693C351.983 151.94 351.292 150.708 348.332 149.15C346.713 148.297 308.032 148.02 198.832 148.079C117.808 148.122 50.841 148.406 50.016 148.709ZM432.01 323.75C432.007 430.994 431.66 486.742 430.981 489.186C430.418 491.213 428.586 494.025 426.91 495.436C424.2 497.716 422.985 498 415.939 498H408.016V330V162H420.016H432.016L432.01 323.75ZM47.016 212C45.05 213.966 45.016 215.333 45.016 292.326V370.651L47.33 372.826L49.645 375H127.656H205.667L207.842 372.686L210.016 370.371V292.186C210.016 215.333 209.982 213.966 208.016 212C206.05 210.034 204.683 210 127.516 210C50.349 210 48.982 210.034 47.016 212ZM226.823 211.75C223.283 215.872 224.103 220.807 228.673 222.89C232.175 224.485 345.297 224.448 348.332 222.85C351.292 221.292 351.983 220.06 352.001 216.307C352.032 209.795 354.112 210 287.948 210C232.404 210 228.223 210.12 226.823 211.75ZM196.016 292.5V361H127.516H59.016V292.5V224H127.516H196.016V292.5ZM226.96 250.844C225.42 252.091 224.683 253.76 224.683 256C224.683 258.24 225.42 259.909 226.96 261.156C229.116 262.902 232.394 263 288.404 263C354.39 263 352.016 263.245 352.016 256.443C352.016 254.333 351.242 252.226 350.016 251C348.061 249.045 346.683 249 288.627 249C232.4 249 229.116 249.098 226.96 250.844ZM169.478 267.016C167.808 267.528 165.108 269.339 163.478 271.039C161.024 273.601 160.516 274.967 160.516 279C160.516 284.985 163.659 288.754 171.384 292.034C178.323 294.98 181.016 297.623 181.016 301.486C181.016 308.148 174.282 311.241 165.563 308.583C162.838 307.753 160.532 307.169 160.437 307.287C160.342 307.404 159.95 308.522 159.566 309.77C158.974 311.697 159.404 312.264 162.41 313.52C167.225 315.532 175.725 315.4 179.945 313.248C184.967 310.688 187.347 306.919 187.267 301.654C187.171 295.273 184.788 292.41 175.82 287.901C166.982 283.458 165.04 280.771 167.089 275.823C168.582 272.219 173.917 270.582 179.311 272.071C181.364 272.638 183.487 272.827 184.029 272.492C185.54 271.558 185.202 268.285 183.528 267.643C180.484 266.475 172.416 266.115 169.478 267.016ZM84.016 267.421C84.016 267.652 80.438 278.227 76.065 290.921L68.113 314H71.368C74.517 314 74.695 313.773 76.889 306.962L79.156 299.924L87.753 300.212L96.351 300.5L98.512 307C100.516 313.027 100.905 313.523 103.845 313.813C105.589 313.986 107.021 313.761 107.027 313.313C107.033 312.866 103.545 302.266 99.277 289.759L91.516 267.018L87.766 267.009C85.704 267.004 84.016 267.189 84.016 267.421ZM116.766 267.646C115.165 268.104 115.016 270.094 115.016 291.028V313.909L118.64 314.589C128.056 316.356 142.34 312.731 147.211 307.34C150.813 303.353 152.972 296.683 152.985 289.5C152.995 283.565 152.549 281.718 150.049 277.36C145.79 269.934 140.572 267.557 128.016 267.322C122.791 267.225 117.729 267.37 116.766 267.646ZM137.298 273.371C151.643 279.484 149.637 304.68 134.469 308.891C132.295 309.495 128.379 309.991 125.766 309.994L121.016 310V291V272H127.548C131.141 272 135.528 272.617 137.298 273.371ZM94.016 293.712C94.016 294.633 92.131 295 87.399 295C81.577 295 80.842 294.79 81.276 293.25C81.547 292.288 83.056 287.327 84.628 282.226L87.488 272.952L90.752 282.688C92.547 288.042 94.016 293.003 94.016 293.712ZM228.91 289.102C224.184 290.859 223.213 296.046 226.823 300.25C228.223 301.881 232.431 302 288.516 302C347.098 302 348.754 301.947 350.486 300.033C352.892 297.375 352.729 293.269 350.114 290.653C347.964 288.503 347.888 288.5 289.739 288.317C254.169 288.205 230.502 288.51 228.91 289.102ZM226.823 329.75C222.866 334.357 224.251 339.403 229.931 341.073C232.195 341.738 244.07 342.011 262.163 341.813C288.68 341.523 290.966 341.358 292.913 339.595C295.581 337.178 295.63 332.614 293.016 330C291.101 328.085 289.683 328 259.671 328C231.058 328 228.195 328.153 226.823 329.75ZM50.016 414.704C44.937 416.589 43.398 422.382 47.016 426C48.998 427.982 50.349 428 198.861 428C346.595 428 348.731 427.972 350.486 426.033C352.892 423.374 352.729 419.269 350.113 416.653L347.961 414.5L199.738 414.324C118.216 414.227 50.841 414.398 50.016 414.704ZM47.651 453.073C44.308 455.702 44.171 459.858 47.33 462.826L49.645 465H127.876H206.107L208.561 462.545C211.676 459.431 211.676 456.569 208.561 453.455L206.107 451H128.196C50.89 451 50.265 451.016 47.651 453.073Z" fill="#757575"/>
</svg>
