<svg width="512" height="512" viewBox="0 0 512 512" fill="none" xmlns="http://www.w3.org/2000/svg">
<path fill-rule="evenodd" clip-rule="evenodd" d="M246.776 0.600704C239.421 2.1467 231.572 6.6037 225.447 12.7117C212.813 25.3107 209.563 43.3107 216.79 60.6597C218.804 65.4927 229.166 76.2107 313.621 160.822L408.196 255.572L313.621 350.322C229.166 434.933 218.804 445.651 216.79 450.484C209.563 467.833 212.813 485.833 225.447 498.432C235.62 508.577 248.874 513.004 262.375 510.767C276.776 508.38 269.872 514.674 392.441 392.197C492.548 292.165 504.932 279.453 507.26 274.331C512.644 262.486 512.787 249.768 507.673 237.484C505.655 232.636 493.849 220.48 394.326 120.783C333.224 59.5737 281.187 8.1737 278.688 6.5617C276.19 4.9487 272.157 2.9277 269.725 2.0697C264.174 0.110704 252.624 -0.628296 246.776 0.600704ZM34.7764 21.6117C27.4434 23.1357 19.5814 27.5947 13.4534 33.7057C-0.392643 47.5137 -3.93164 68.8807 4.61436 87.0717C7.97636 94.2287 4.48035 90.3967 86.1084 176.41L150.985 244.772L143.514 252.422C135.748 260.374 31.8284 370.024 16.4794 386.462C6.19136 397.48 2.26136 404.711 0.575357 415.724C-3.60964 443.05 16.9804 468.548 43.2314 468.548C52.6594 468.548 63.2314 464.566 70.3924 458.316C74.1644 455.024 235.557 285.22 243.621 276.059C256.163 261.81 259.009 241.074 250.778 223.921C247.257 216.584 250.492 220.11 152.808 117.171C101.675 63.2877 69.1314 29.7537 66.0604 27.7827C63.3574 26.0487 59.2814 23.9717 57.0024 23.1677C51.5354 21.2387 40.3444 20.4547 34.7764 21.6117Z" fill="#757575"/>
</svg>
