<svg width="512" height="511" viewBox="0 0 512 511" fill="none" xmlns="http://www.w3.org/2000/svg">
<path fill-rule="evenodd" clip-rule="evenodd" d="M231.342 0.620415C151.313 8.93642 81.2375 52.4244 38.6305 120.214C-21.7755 216.324 -10.3715 343.926 66.0545 427.061C108.532 473.267 161.137 500.747 224.331 509.743C236.21 511.434 275.496 511.406 287.831 509.699C350.068 501.083 402.63 473.664 445.035 427.693C479.948 389.845 502.257 341.561 510.016 287.058C511.69 275.294 511.69 235.822 510.016 224.058C504.101 182.503 490.941 147.176 469.079 114.159C459.781 100.117 450.495 88.7884 437.558 75.7034C397.582 35.2704 348.239 10.3864 291.331 1.96042C279.064 0.143415 243.56 -0.648585 231.342 0.620415ZM279.217 156.012C285.082 159.983 285.266 161.326 285.823 204.058C286.322 242.372 286.371 243.122 288.59 246.69C291.656 251.621 295.631 253.23 299.634 251.16C303.405 249.21 314.321 236.581 321.332 226.058C329.273 214.138 338.99 195.759 345.388 180.558C348.662 172.779 352.298 165.787 353.969 164.058L356.867 161.058L390.35 160.77C425.448 160.467 430.169 160.896 434.008 164.735C437.027 167.754 435.909 174.56 430.537 185.854C425.276 196.916 419.831 205.013 397.729 234.642C376.635 262.919 374.802 266.648 378.451 273.858C379.342 275.618 389.829 286.958 401.757 299.058C430.394 328.109 437.776 339.124 434.943 348.578C434.35 350.558 432.696 353.276 431.269 354.618L428.673 357.058L397.687 357.349C351.653 357.782 353.485 358.54 324.066 326.897C307.699 309.293 302.279 306.592 295.415 312.618C290.709 316.75 288.01 324.433 286.704 337.413C284.825 356.082 283.457 357.08 259.831 357.008C235.214 356.932 219.245 353.427 200.169 343.912C189.927 338.804 175.312 328.303 166.51 319.728C142.773 296.605 116.673 256.335 90.2425 202.058C76.8435 174.54 75.0185 169.773 76.3885 165.867C78.0345 161.173 81.4255 160.677 112.265 160.614C147.6 160.543 146.862 160.303 153.105 173.917C161.054 191.255 172.427 213.087 178.87 223.381C201.101 258.899 213.705 261.902 216.81 232.422C218.679 214.675 217.676 189.033 214.755 179.919C213.116 174.805 207.46 169.797 201.302 168.006C194.884 166.141 194.546 164.923 199.081 160.002C204.793 153.802 206.478 153.567 243.331 153.826C274.208 154.043 276.517 154.184 279.217 156.012Z" fill="#445260"/>
</svg>
