<svg width="511" height="511" viewBox="0 0 511 511" fill="none" xmlns="http://www.w3.org/2000/svg">
<path fill-rule="evenodd" clip-rule="evenodd" d="M231.557 0.599648C181.841 5.40965 132.562 25.6246 93.921 57.0606C82.555 66.3076 64.559 84.4467 55.494 95.7957C32.573 124.49 13.79 163.303 6 198.066C1.108 219.902 0 230.517 0 255.566C0 280.615 1.108 291.23 6 313.066C13.96 348.587 33.233 387.955 56.916 417.066C66.163 428.432 84.302 446.428 95.651 455.493C124.345 478.414 163.158 497.197 197.921 504.987C219.757 509.879 230.372 510.987 255.421 510.987C280.47 510.987 291.085 509.879 312.921 504.987C339.058 499.13 373.233 484.526 395.691 469.617C434.641 443.758 464.556 409.735 484.981 368.066C497.492 342.541 504.598 319.681 509.074 290.566C511.551 274.456 511.551 236.676 509.074 220.566C504.598 191.451 497.492 168.591 484.981 143.066C471.63 115.828 456.748 95.1057 435.263 73.8387C414.169 52.9587 394.846 39.2376 367.921 26.0196C342.7 13.6376 319.351 6.33565 291.421 2.09465C278.861 0.187648 244.644 -0.667352 231.557 0.599648ZM195.037 114.128C200.952 118.546 201.709 120.57 202.577 134.287C204.134 158.898 208.558 178.477 217.01 198.165C222.076 209.965 222.769 215.059 220.028 220.358C217.914 224.447 214.774 226.536 201.046 232.986C194.652 235.99 189.421 238.746 189.421 239.11C189.421 239.474 192.767 244.788 196.856 250.919C210.107 270.785 225.595 287.768 243.69 302.273C251.069 308.188 270.614 321.566 271.877 321.566C272.205 321.566 275.177 315.848 278.48 308.859C284.887 295.303 286.333 293.18 290.69 290.927C295.828 288.27 301.166 289.01 312.822 293.995C332.577 302.443 352.128 306.855 376.7 308.41C390.418 309.278 392.443 310.036 396.859 315.951C398.851 318.618 398.921 319.919 398.921 354.066C398.921 388.213 398.851 389.514 396.859 392.181C392 398.69 390.691 399.078 374.082 398.939C327.721 398.55 276.221 382.347 234.921 355.155C161.728 306.964 116.334 227.986 111.818 140.975C111.02 125.599 111.57 121.731 115.161 117.463C120.044 111.659 120.631 111.583 158.099 111.835C190.87 112.057 192.391 112.151 195.037 114.128Z" fill="#445260"/>
</svg>
