<svg width="511" height="512" viewBox="0 0 511 512" fill="none" xmlns="http://www.w3.org/2000/svg">
<path fill-rule="evenodd" clip-rule="evenodd" d="M237.394 0.250845C235.469 0.476845 229.619 1.12484 224.394 1.69184C191.401 5.27184 154.865 17.6518 125.383 35.2428C87.8612 57.6298 57.3642 88.1268 34.9772 125.649C17.5302 154.89 5.94225 188.871 1.21425 224.66C-0.40475 236.913 -0.40475 274.407 1.21425 286.66C5.94225 322.449 17.5302 356.43 34.9772 385.671C57.3642 423.193 87.8612 453.69 125.383 476.077C154.624 493.524 188.605 505.112 224.394 509.84C236.647 511.459 274.141 511.459 286.394 509.84C348.662 501.613 401.443 474.264 444.519 427.908C468.35 402.262 486.994 370.363 498.436 335.66C507.455 308.305 510.83 286.523 510.83 255.66C510.83 232.828 509.866 222.741 505.768 202.66C491.716 133.809 447.48 72.2798 385.405 35.2428C356.462 17.9738 321.948 6.14084 287.394 1.63884C278.624 0.496845 243.594 -0.476155 237.394 0.250845ZM275.894 30.6698C334.184 36.0128 390.476 65.3178 427.626 109.66C499.105 194.979 499.105 316.341 427.626 401.66C390.476 446.002 334.184 475.307 275.894 480.65C216.103 486.13 156.283 467.175 109.394 427.892C59.6003 386.175 29.3963 321.146 29.3963 255.66C29.3963 188.051 61.3643 121.575 114.085 79.5538C159.983 42.9708 218.203 25.3818 275.894 30.6698ZM230.541 71.2718C155.216 81.4998 93.6813 136.533 74.9573 210.415C49.8483 309.491 110.573 410.862 210.149 436.097C309.225 461.206 410.596 400.481 435.831 300.905C460.94 201.829 400.215 100.458 300.639 75.2228C279.371 69.8328 252.353 68.3098 230.541 71.2718ZM278.114 101.258C354.832 112.627 411.421 178.518 411.389 256.44C411.374 292.656 397.183 330.606 373.576 357.565L369.719 361.969L369.071 344.065C368.318 323.271 366.419 313.777 360.476 301.093C355.613 290.716 351.874 285.266 343.599 276.495C336.537 269.009 322.484 259.006 315.029 256.159C312.48 255.185 310.394 254.11 310.394 253.771C310.394 253.431 312.025 250.905 314.017 248.157C322.836 235.996 327.359 221.758 327.359 206.16C327.359 193.796 325.265 184.834 319.776 173.715C315.94 165.945 313.587 162.736 306.504 155.615C296.952 146.011 288.828 140.921 276.561 136.852C269.868 134.632 267.178 134.309 255.394 134.309C243.61 134.309 240.92 134.632 234.227 136.852C221.96 140.921 213.836 146.011 204.284 155.615C190.11 169.865 183.429 186.057 183.429 206.16C183.429 221.758 187.952 235.996 196.771 248.157C198.763 250.905 200.394 253.431 200.394 253.771C200.394 254.11 198.308 255.185 195.759 256.159C188.304 259.006 174.251 269.009 167.189 276.495C158.914 285.266 155.175 290.716 150.312 301.093C144.369 313.777 142.47 323.271 141.717 344.065L141.069 361.969L137.212 357.565C124.963 343.577 113.655 323.641 107.466 305.123C82.3382 229.936 117.406 148.314 189.478 114.239C200.802 108.885 219.571 103.142 231.894 101.261C244.447 99.3448 265.197 99.3428 278.114 101.258ZM263.508 164.675C278.521 167.504 291.346 179.303 295.971 194.541C300.492 209.438 294.501 228.81 282.356 238.571C254.606 260.871 213.351 241.535 213.405 206.253C213.423 194.143 217.263 184.824 225.701 176.413C236.084 166.062 249.223 161.983 263.508 164.675ZM298.371 281.889C313.63 287.457 325.986 298.611 332.755 312.926C338.449 324.968 338.869 328.17 338.882 359.582L338.894 388.003L327.894 393.794C315.709 400.21 297.664 406.583 283.894 409.334C277.078 410.696 270.161 411.132 255.394 411.132C240.627 411.132 233.71 410.696 226.894 409.334C213.124 406.583 195.079 400.21 182.894 393.794L171.894 388.003L171.906 359.582C171.918 328.214 172.344 324.959 177.987 313.021C185.837 296.417 200.299 284.647 218.394 280.137C222.594 279.09 231.813 278.813 257.394 278.963L290.894 279.16L298.371 281.889Z" fill="#757575"/>
</svg>
