<svg width="464" height="480" viewBox="0 0 464 480" fill="none" xmlns="http://www.w3.org/2000/svg">
<path fill-rule="evenodd" clip-rule="evenodd" d="M77.789 1.4185C74.578 3.8585 74 7.9855 74 28.4785V48.7725L63.186 49.2845C50.953 49.8645 45.521 51.6885 40.21 56.9995C33.632 63.5775 33.532 64.0665 33.187 91.3055L32.873 116.055H248H463.127L462.813 91.3055C462.468 64.0665 462.368 63.5775 455.79 56.9995C450.479 51.6885 445.047 49.8645 432.814 49.2845L422 48.7725V27.8485C422 6.6815 421.61 4.0425 418.087 1.3375C416.002 -0.263501 410.945 -0.2185 408.789 1.4185C405.574 3.8615 405 7.9835 405 28.6205V49.0555H372H339V27.2015C339 5.3905 338.995 5.3425 336.548 2.7015C333.234 -0.874501 328.25 -0.9035 324.924 2.6345C322.535 5.1765 322.495 5.5255 322.165 27.1345L321.831 49.0555H330.415H339V62.9205C339 75.4335 338.798 77.0425 336.927 79.4205C334.172 82.9235 328.329 83.0985 325.204 79.7725C323.255 77.6985 323.034 76.2145 322.78 63.5225L322.5 49.5555H289.5H256.5L256.22 63.5225C255.966 76.2145 255.745 77.6985 253.796 79.7725C252.322 81.3415 250.509 82.0555 248 82.0555C245.491 82.0555 243.678 81.3415 242.204 79.7725C240.255 77.6985 240.034 76.2145 239.78 63.5225L239.5 49.5555L206.82 49.2915L174.14 49.0285L173.82 27.1205C173.504 5.5155 173.466 5.1765 171.076 2.6335C167.75 -0.903501 162.766 -0.874501 159.452 2.7015C157.005 5.3425 157 5.3905 157 27.2015V49.0555H124H91V28.6205C91 3.5705 89.971 0.119499 82.5 0.119499C80.85 0.119499 78.73 0.7035 77.789 1.4185ZM242.455 2.5105L240 4.9645V27.0105V49.0555H248H256V27.0105V4.9645L253.545 2.5105C251.998 0.962499 249.948 0.0554995 248 0.0554995C246.052 0.0554995 244.002 0.962499 242.455 2.5105ZM91 62.1055C91 78.7005 89.571 82.0555 82.5 82.0555C75.429 82.0555 74 78.7005 74 62.1055V49.0555H82.5H91V62.1055ZM173.846 62.9765C173.52 76.0945 173.36 77.0465 171.076 79.4765C167.67 83.0995 161.946 83.0735 159.073 79.4205C157.202 77.0425 157 75.4335 157 62.9205V49.0555H165.596H174.192L173.846 62.9765ZM422 62.1055C422 78.7955 420.587 82.0555 413.352 82.0555C406.588 82.0555 405 78.1295 405 61.4065V49.0555H413.5H422V62.1055ZM33 196.105C33 247.104 33.255 259.991 34.25 259.355C34.938 258.915 38.65 256.475 42.5 253.933C57.748 243.862 76.308 236.55 94.412 233.483C108.843 231.039 132.793 231.925 146.5 235.41C170.423 241.494 190.136 252.416 207.569 269.245C226.783 287.793 239.49 310.813 245.16 337.344C247.721 349.326 248.25 375.173 246.158 386.056C242.679 404.151 235.673 421.716 226.32 435.795C223.12 440.614 220.135 445.128 219.689 445.827C219.034 446.853 240.542 447.046 331.189 446.827L443.5 446.556L449.15 443.781C455.162 440.829 459.508 436.081 461.629 430.146C462.65 427.288 462.921 396.525 462.956 279.306L463 132.055H248H33V196.105ZM100.472 249.031C42.549 257.25 0 305.709 0 363.46C0 395.786 12.124 424.377 35.32 446.753C58.119 468.745 83.853 479.212 115.5 479.366C140.341 479.486 160.304 473.368 181.267 459.209C209.809 439.93 228.24 407.966 230.945 373.056C233.682 337.72 220.595 303.84 194.815 279.52C179.559 265.128 160.262 255.113 138.858 250.48C130.211 248.609 109.07 247.811 100.472 249.031ZM120.087 274.338C123.861 277.236 124 278.947 124 322.556C124 366.165 123.861 367.875 120.087 370.773C118.929 371.662 110.976 372 90.705 372.023L62.909 372.056L60.455 369.601C57.316 366.463 57.193 361.544 60.174 358.37C62.321 356.085 62.632 356.056 84.641 356.056H106.933L107.216 316.969L107.5 277.881L110.306 275.469C113.33 272.868 117.538 272.381 120.087 274.338Z" fill="#757575"/>
</svg>
