<svg width="511" height="511" viewBox="0 0 511 511" fill="none" xmlns="http://www.w3.org/2000/svg">
<path fill-rule="evenodd" clip-rule="evenodd" d="M511 255.5C511 396.609 396.609 511 255.5 511C114.391 511 0 396.609 0 255.5C0 114.391 114.391 0 255.5 0C396.609 0 511 114.391 511 255.5ZM111.301 143.979C101.712 146.527 94.2514 156.792 95.1072 166.262C95.3091 168.499 96.8407 169.722 168.04 224.48C212.814 258.915 242.175 281.084 244.432 282.159C252.376 285.942 261.659 285.927 269.571 282.118C272.067 280.917 297.764 261.143 344.527 224.444C414.213 169.753 415.691 168.549 415.893 166.286C416.497 159.533 412.386 151.215 406.437 147.15C406.012 146.859 405.662 146.589 405.336 146.337C405.097 146.153 404.872 145.979 404.639 145.815C400.609 142.96 394.555 142.963 283.467 143.01C274.717 143.014 265.315 143.018 255.212 143.021C134.064 143.057 114.275 143.189 111.301 143.979ZM95 340.012V263.409V186.806L102.367 192.461C161.67 237.981 184.256 255.589 184.01 256.107C183.791 256.573 108.066 327.988 96.7241 338.426L95 340.012ZM299.034 278.747C279.532 294.037 275.175 296.692 266.348 298.66C257.251 300.689 246.459 299.402 237.643 295.238C235.085 294.03 226.601 287.984 215.54 279.486C205.667 271.9 197.273 265.573 196.887 265.425C196.022 265.093 98.7617 356.444 98.7617 357.588C98.7617 358.765 104.402 363.874 107.374 365.391C108.761 366.098 111.693 366.968 113.889 367.324C119.483 368.232 391.576 368.222 397.173 367.314C402.252 366.491 406.451 364.235 410.032 360.409L412.811 357.438L402.023 346.842C396.09 341.014 376.424 321.902 358.32 304.371C340.217 286.841 323.554 270.703 321.291 268.51L317.177 264.523L299.034 278.747ZM329.404 255.599C329.274 255.32 348.493 239.897 372.113 221.327C395.734 202.758 415.271 187.545 415.53 187.521C415.789 187.498 416 221.78 416 263.704V339.928L398.602 323.018C389.033 313.717 369.602 294.857 355.423 281.107C341.243 267.358 329.534 255.879 329.404 255.599Z" fill="#445260"/>
</svg>
